<svg xmlns="http://www.w3.org/2000/svg" xmlns:xlink="http://www.w3.org/1999/xlink">
        <symbol id="facebook-ico" viewBox="0 0 14 14">
            <g clip-path="url(#clip0_1_196)">
                <path  d="M12.25 0H1.75C0.787294 0 0 0.788118 0 1.75V12.25C0 13.2135 0.787294 14 1.75 14H7.06094V8.97976H5.38341V6.79329H7.06094V5.698C7.06094 4.00894 8.30694 2.68635 9.898 2.68635H11.4438V5.15529H10.0611C9.70035 5.15529 9.59247 5.36282 9.59247 5.65024V6.79329H11.4438V8.97976H9.59247V14H12.25C13.2135 14 14 13.2135 14 12.25V1.75C14 0.788118 13.2135 0 12.25 0Z" fill="currentColor"/>
            </g>
            <defs>
                <clipPath id="clip0_1_196">
                    <rect width="14" height="14" fill="black"/>
                </clipPath>
            </defs>
        </symbol>
        <symbol viewBox="0 0 448 512" id="instagram-ico">
            <path fill="currentColor" d="M224.1 141c-63.6 0-114.9 51.3-114.9 114.9s51.3 114.9 114.9 114.9S339 319.5 339 255.9 287.7 141 224.1 141zm0 189.6c-41.1 0-74.7-33.5-74.7-74.7s33.5-74.7 74.7-74.7 74.7 33.5 74.7 74.7-33.6 74.7-74.7 74.7zm146.4-194.3c0 14.9-12 26.8-26.8 26.8-14.9 0-26.8-12-26.8-26.8s12-26.8 26.8-26.8 26.8 12 26.8 26.8zm76.1 27.2c-1.7-35.9-9.9-67.7-36.2-93.9-26.2-26.2-58-34.4-93.9-36.2-37-2.1-147.9-2.1-184.9 0-35.8 1.7-67.6 9.9-93.9 36.1s-34.4 58-36.2 93.9c-2.1 37-2.1 147.9 0 184.9 1.7 35.9 9.9 67.7 36.2 93.9s58 34.4 93.9 36.2c37 2.1 147.9 2.1 184.9 0 35.9-1.7 67.7-9.9 93.9-36.2 26.2-26.2 34.4-58 36.2-93.9 2.1-37 2.1-147.8 0-184.8zM398.8 388c-7.8 19.6-22.9 34.7-42.6 42.6-29.5 11.7-99.5 9-132.1 9s-102.7 2.6-132.1-9c-19.6-7.8-34.7-22.9-42.6-42.6-11.7-29.5-9-99.5-9-132.1s-2.6-102.7 9-132.1c7.8-19.6 22.9-34.7 42.6-42.6 29.5-11.7 99.5-9 132.1-9s102.7-2.6 132.1 9c19.6 7.8 34.7 22.9 42.6 42.6 11.7 29.5 9 99.5 9 132.1s2.7 102.7-9 132.1z" />
        </symbol>

        <symbol viewBox="0 0 448 512" id="twitter-ico">
            <path fill="currentColor" d="M459.37 151.716c.325 4.548.325 9.097.325 13.645 0 138.72-105.583 298.558-298.558 298.558-59.452 0-114.68-17.219-161.137-47.106 8.447.974 16.568 1.299 25.34 1.299 49.055 0 94.213-16.568 130.274-44.832-46.132-.975-84.792-31.188-98.112-72.772 6.498.974 12.995 1.624 19.818 1.624 9.421 0 18.843-1.3 27.614-3.573-48.081-9.747-84.143-51.98-84.143-102.985v-1.299c13.969 7.797 30.214 12.67 47.431 13.319-28.264-18.843-46.781-51.005-46.781-87.391 0-19.492 5.197-37.36 14.294-52.954 51.655 63.675 129.3 105.258 216.365 109.807-1.624-7.797-2.599-15.918-2.599-24.04 0-57.828 46.782-104.934 104.934-104.934 30.213 0 57.502 12.67 76.67 33.137 23.715-4.548 46.456-13.32 66.599-25.34-7.798 24.366-24.366 44.833-46.132 57.827 21.117-2.273 41.584-8.122 60.426-16.243-14.292 20.791-32.161 39.308-52.628 54.253z"/>
        </symbol>
    <symbol viewBox="0 0 14 14" id="linkedin-icon">
        <path d="M3.17059 1.49635C3.17059 2.32318 2.56035 2.99271 1.55565 2.99271C0.610235 2.99353 0 2.324 0 1.49635C0 0.649765 0.63 0 1.59518 0C2.55953 0 3.15082 0.649765 3.17059 1.49635ZM0.0790588 13.804V4.17447H3.07176V13.8032H0.0790588V13.804Z" fill="currentColor"/>
        <path d="M4.86296 7.24685C4.86296 6.04532 4.82426 5.04144 4.78473 4.17508H7.38379L7.52214 5.51414H7.58061C7.97426 4.88332 8.93943 3.9585 10.5536 3.9585C12.5226 3.95767 14 5.27697 14 8.1132V13.8038H11.0065V8.46732C11.0065 7.22708 10.5741 6.3805 9.49038 6.3805C8.66273 6.3805 8.17108 6.9512 7.95532 7.50297C7.87543 7.69979 7.85649 7.97567 7.85649 8.25073V13.8038H4.86296V7.24685Z" fill="currentColor"/>
    </symbol>
    <symbol viewBox="0 0 14 14" id="email-vector">
        <path d="M6.63106 10.2562L4.40753 8.18007C4.23212 8.01619 3.948 8.01619 3.77259 8.18007L0 11.6949V12.1734C0 12.6197 0.391176 12.9829 0.868823 12.9829H13.0282C13.5059 12.9829 13.8971 12.6197 13.8971 12.1734V11.6949L10.1245 8.17843C9.94823 8.01619 9.66329 8.01619 9.48953 8.17843L7.266 10.2545C7.09059 10.4193 6.80647 10.4193 6.63106 10.2562ZM11.3573 7.0296L13.58 9.10572C13.7546 9.2696 13.8971 9.20702 13.8971 8.96737V4.50055C13.8971 4.26007 13.7546 4.19831 13.58 4.36219L11.3573 6.43831C11.1811 6.60137 11.1811 6.86572 11.3573 7.0296ZM0.868823 0.823486C0.391176 0.823486 0 1.18831 0 1.63384V1.7796L6.59729 7.95937C6.77188 8.12325 7.05518 8.12325 7.22976 7.95937L13.8971 1.70631V1.63384C13.8971 1.18831 13.5059 0.823486 13.0282 0.823486H0.868823ZM0 4.50055V8.96737C0 9.20702 0.142471 9.2696 0.317059 9.10572L2.53976 7.0296C2.716 6.86572 2.716 6.60137 2.53976 6.43749L0.317059 4.36219C0.142471 4.19831 0 4.26007 0 4.50055Z" fill="currentColor"/>
    </symbol>
    <symbol viewBox="0 0 14 14" id="Be-vector">
        <path d="M5.61318 6.57353C5.61318 6.57353 6.92918 6.47141 6.92918 4.86388C6.93 3.25553 5.85282 2.4707 4.48906 2.4707H0V11.4571H4.48906C4.48906 11.4571 7.22894 11.5476 7.22894 8.80364C7.22894 8.80364 7.34835 6.57353 5.61318 6.57353ZM1.97812 4.06835H4.48823C4.48823 4.06835 5.09847 4.06835 5.09847 5.00388C5.09847 5.93859 4.73941 6.07447 4.33259 6.07447H1.97812V4.06835ZM4.36141 9.86023H1.97812V7.458H4.48823C4.48823 7.458 5.39741 7.44647 5.39741 8.69164C5.39824 9.74329 4.71882 9.852 4.36141 9.86023ZM10.8829 4.75764C7.56659 4.75764 7.56988 8.20906 7.56988 8.20906C7.56988 8.20906 7.34176 11.6456 10.8829 11.6456C10.8829 11.6456 13.8345 11.8219 13.8345 9.25576H12.3175C12.3175 9.25576 12.3678 10.2226 10.934 10.2226C10.934 10.2226 9.41459 10.3288 9.41459 8.65788H13.8855C13.8855 8.65706 14.3739 4.75764 10.8829 4.75764ZM12.2327 7.458H9.39976C9.39976 7.458 9.58506 6.07447 10.9175 6.07447C12.2484 6.07364 12.2327 7.458 12.2327 7.458ZM12.5852 3.00023H9.02753V4.10788H12.5852V3.00023Z" fill="currentColor"/>
    </symbol>
    <symbol viewBox="0 0 14 14" id="explorer-vector">
        <g clip-path="url(#clip0_1_183)">
            <path d="M6.52565 4.92882C5.51435 3.13106 4.43306 1.666 4.35318 1.55894C2.72259 2.33059 1.50541 3.83271 1.12576 5.64282C1.27894 5.64612 3.71659 5.67494 6.52565 4.92882ZM7.25365 6.89376C7.33024 6.86906 7.40765 6.846 7.48424 6.82459C7.33765 6.49188 7.17706 6.15918 7.00906 5.82976C3.99824 6.73153 1.10682 6.66647 1.00471 6.66318C1.00306 6.72494 1.00059 6.78671 1.00059 6.84929C1.00059 8.35306 1.56882 9.72341 2.50106 10.7602C2.50024 10.7586 2.49776 10.7545 2.49776 10.7545C2.49776 10.7545 4.09788 7.91494 7.25365 6.89376ZM3.25376 11.4602L3.25459 11.4569C3.21176 11.4232 3.16565 11.3927 3.12282 11.3565C3.20024 11.4191 3.25376 11.4602 3.25376 11.4602ZM5.44765 1.17024C5.44188 1.17188 5.43777 1.17271 5.432 1.17353C5.44106 1.17188 5.44765 1.17106 5.44765 1.17024ZM10.7116 2.45906C9.68224 1.55153 8.33 0.999765 6.84929 0.999765C6.37329 0.999765 5.91294 1.05741 5.47153 1.16447C5.56047 1.28224 6.65741 2.74071 7.658 4.57635C9.86259 3.75035 10.696 2.48376 10.7116 2.45906ZM6.84847 13.6978C3.06682 13.6978 0 10.6309 0 6.84847C0 3.066 3.06682 0 6.84847 0C10.6301 0 13.6969 3.06682 13.6969 6.84847C13.6969 10.6301 10.6309 13.6978 6.84847 13.6978ZM7.84329 7.80624C4.41082 9.002 3.27765 11.4092 3.25459 11.4578C4.24694 12.2335 5.49212 12.6996 6.84847 12.6996C7.658 12.6996 8.43047 12.5333 9.13129 12.236C9.04482 11.7238 8.70471 9.93176 7.882 7.79471C7.86965 7.798 7.85729 7.80212 7.84329 7.80624ZM8.10682 5.44847C8.24435 5.72682 8.37447 6.01094 8.49635 6.29671C8.54 6.39718 8.582 6.49847 8.62235 6.59812C10.6425 6.34447 12.6321 6.77518 12.6964 6.79C12.6824 5.40153 12.1866 4.13 11.3664 3.13353C11.354 3.15165 10.416 4.50553 8.10682 5.44847ZM8.97812 7.52294C9.74647 9.63282 10.0586 11.3507 10.1171 11.6999C11.4298 10.8129 12.3645 9.408 12.6247 7.77659C12.5078 7.73953 10.8698 7.21988 8.97812 7.52294Z" fill="currentColor"/>
        </g>
        <defs>
            <clipPath id="clip0_1_183">
                <rect width="14" height="14" fill="white"/>
            </clipPath>
        </defs>
    </symbol>
</svg>
